<?xml version="1.0" standalone="no"?>
<!DOCTYPE svg PUBLIC "-//W3C//DTD SVG 20010904//EN"
 "http://www.w3.org/TR/2001/REC-SVG-20010904/DTD/svg10.dtd">
<svg version="1.0" xmlns="http://www.w3.org/2000/svg"
 width="720.000000pt" height="720.000000pt" viewBox="0 0 720.000000 720.000000"
 preserveAspectRatio="xMidYMid meet">
<metadata>
Created by potrace 1.11, written by Peter Selinger 2001-2013
</metadata>
<g transform="translate(0.000000,720.000000) scale(0.100000,-0.100000)"
fill="#000000" stroke="none">
<path d="M3685 6862 l-240 -2 -111 -113 -111 -112 1 -168 c1 -102 -3 -172 -9
-176 -5 -5 -28 -11 -50 -15 -350 -55 -692 -205 -925 -405 -77 -67 -350 -346
-395 -406 -123 -161 -223 -381 -251 -555 -2 -14 -6 -34 -8 -45 -19 -88 -27
-317 -14 -428 35 -315 149 -545 391 -788 31 -32 57 -55 57 -52 0 3 11 -6 25
-21 13 -14 28 -26 34 -26 5 0 11 -3 13 -7 5 -12 66 -53 79 -53 6 0 8 -7 5 -16
-3 -8 -2 -12 4 -9 13 8 52 -19 43 -29 -4 -4 0 -4 9 -1 8 3 22 -1 31 -9 9 -9
23 -16 33 -16 13 0 14 -3 5 -14 -9 -11 -6 -12 14 -8 15 2 25 0 25 -7 0 -7 4
-10 9 -6 5 3 16 -2 25 -11 9 -8 20 -12 26 -9 5 3 10 -1 10 -9 0 -9 3 -15 8
-15 25 4 42 -3 43 -18 0 -15 2 -15 9 2 5 11 9 14 9 7 1 -8 6 -10 14 -6 7 5 6
0 -3 -11 -14 -17 -14 -18 9 -6 19 11 25 11 32 0 4 -7 6 -16 4 -19 -2 -3 6 -7
18 -7 17 -2 19 0 7 7 -8 5 -10 10 -4 10 6 0 17 -6 23 -14 7 -8 21 -13 32 -11
10 2 19 0 19 -4 0 -5 11 -12 25 -15 14 -4 24 -10 21 -15 -3 -4 5 -6 19 -4 15
3 32 -2 46 -16 18 -17 25 -18 38 -8 12 10 14 9 7 -8 -6 -16 -5 -18 5 -7 16 15
33 16 24 1 -4 -6 0 -9 11 -7 12 2 18 -2 16 -10 -1 -8 2 -11 8 -7 6 3 8 11 5
16 -4 5 -1 9 4 9 6 0 11 -5 11 -11 0 -5 5 -7 10 -4 6 3 10 -2 10 -12 0 -15 2
-15 9 -4 8 12 12 12 25 2 9 -7 22 -11 31 -8 8 4 21 -3 31 -16 11 -15 15 -17
11 -4 -4 9 -2 17 3 17 6 0 10 -4 10 -9 0 -5 13 -7 30 -6 16 1 27 -1 24 -6 -3
-5 0 -9 6 -9 6 0 8 -6 5 -12 -4 -7 0 -5 8 4 16 20 28 14 20 -10 -4 -13 -1 -12
11 3 10 11 14 14 10 6 -5 -10 -1 -11 16 -6 15 5 20 3 16 -3 -3 -6 -2 -14 4
-17 6 -4 10 -3 9 2 -4 22 3 25 17 7 8 -10 13 -13 9 -6 -3 6 -1 12 5 12 6 0 14
-9 18 -19 4 -11 7 -300 6 -643 l0 -623 -24 3 c-37 4 -172 81 -233 132 -30 25
-74 71 -99 102 -51 63 -135 227 -140 273 -1 17 -6 32 -10 35 -8 7 -19 70 -30
178 -1 6 -6 12 -11 12 -5 0 -3 8 4 17 8 10 9 14 2 10 -8 -5 -13 3 -15 25 l-3
33 -504 2 -505 2 -114 -112 -114 -112 7 -75 c8 -101 16 -161 39 -275 9 -43 38
-153 56 -205 28 -85 96 -234 134 -295 56 -89 74 -114 109 -157 21 -27 37 -48
34 -48 -3 0 29 -34 71 -76 42 -42 76 -81 74 -86 -1 -5 2 -7 7 -4 5 3 14 -1 21
-9 7 -8 16 -12 21 -9 5 3 9 -2 9 -10 0 -8 9 -18 20 -21 11 -3 20 -11 20 -16 0
-6 5 -7 10 -4 6 3 10 2 10 -4 0 -5 9 -13 21 -16 11 -4 18 -12 16 -19 -3 -7 4
-13 16 -14 12 0 23 -6 25 -12 2 -5 9 -7 15 -3 7 4 8 0 3 -12 -5 -15 -4 -16 9
-5 14 12 20 7 16 -14 -1 -5 5 -6 14 -3 8 4 15 3 15 -1 0 -4 14 -13 30 -20 18
-9 27 -18 23 -25 -4 -7 1 -6 10 2 14 11 17 11 18 0 1 -8 1 -18 0 -22 -1 -5 3
-6 9 -2 6 3 8 12 4 18 -3 7 1 4 9 -5 8 -10 17 -15 20 -11 4 3 7 1 7 -5 0 -6 7
-9 15 -6 8 4 17 -1 21 -9 3 -9 12 -13 20 -10 8 3 14 1 14 -4 0 -5 9 -9 21 -10
12 -1 28 -10 36 -20 14 -17 14 -17 9 1 -6 16 -4 17 9 6 8 -7 12 -17 8 -24 -4
-6 1 -5 10 3 16 12 22 8 18 -12 -1 -5 3 -6 8 -2 6 3 23 -2 38 -11 27 -15 27
-15 8 1 -20 17 -20 17 5 10 14 -4 30 -12 35 -18 7 -7 6 -7 -4 -2 -9 5 -12 4
-7 -3 5 -8 13 -9 26 -2 13 7 21 6 29 -4 6 -7 8 -16 4 -19 -3 -4 -1 -7 5 -7 7
0 12 8 12 17 0 15 2 14 16 -3 8 -10 13 -13 9 -6 -9 18 4 15 23 -6 10 -10 13
-12 9 -6 -6 9 -2 11 12 7 12 -3 21 -10 21 -17 0 -6 5 -4 10 4 9 13 10 13 10 0
0 -13 1 -13 10 0 6 10 10 11 10 3 0 -7 9 -13 21 -13 11 0 18 -4 15 -8 -3 -5 1
-9 9 -9 8 0 12 4 9 9 -3 4 0 8 5 8 6 0 11 -5 11 -11 0 -8 6 -7 17 2 9 8 14 9
10 3 -4 -7 3 -14 18 -16 14 -3 25 0 26 6 0 6 4 2 9 -9 6 -13 9 -15 9 -5 1 13
2 13 11 0 7 -11 10 -11 10 -2 0 7 5 10 10 7 6 -4 8 -11 5 -16 -4 -5 -1 -9 4
-9 6 0 11 7 11 15 0 8 5 15 11 15 5 0 7 -5 3 -11 -5 -8 3 -10 25 -7 18 3 35 0
38 -5 3 -6 1 -7 -5 -3 -7 4 -12 3 -12 -2 0 -6 11 -9 24 -8 13 0 22 4 19 9 -2
4 0 7 6 7 5 0 11 -6 13 -12 4 -10 10 -10 32 0 24 10 28 10 34 -7 4 -11 7 -128
7 -260 -1 -190 2 -241 12 -241 7 0 13 -4 13 -9 0 -6 9 -8 21 -6 16 3 18 1 10
-8 -8 -10 -1 -13 32 -12 24 1 48 4 54 8 6 4 14 1 16 -5 4 -10 6 -10 6 0 1 6 6
12 12 12 5 0 8 -4 5 -9 -7 -10 20 -9 30 2 11 11 26 8 19 -3 -3 -5 -2 -10 4
-10 5 0 12 6 15 13 5 9 7 9 12 0 3 -7 10 -13 15 -13 6 0 8 4 5 9 -8 12 27 8
36 -4 5 -6 8 -5 8 3 0 6 5 12 11 12 5 0 8 -4 5 -9 -7 -10 20 -9 30 2 11 11 26
8 19 -3 -3 -5 -2 -10 4 -10 5 0 12 6 15 13 5 9 7 9 12 0 3 -7 10 -13 15 -13 6
0 8 4 5 9 -4 5 2 8 11 6 10 -1 23 2 30 7 7 6 20 5 33 -2 20 -11 21 -10 9 12
-11 21 -11 22 5 9 14 -12 17 -12 14 -1 -2 8 3 14 10 15 6 0 13 5 14 10 1 6 8
16 15 23 7 8 10 19 6 25 -4 7 1 6 11 -2 15 -12 17 -12 14 0 -2 8 2 13 9 12 7
-2 10 6 8 18 -4 18 -2 19 12 7 10 -8 14 -8 10 -1 -4 6 -1 15 7 20 14 7 16 12
16 31 0 4 5 0 10 -8 8 -12 10 -10 10 8 0 13 4 21 9 17 5 -3 13 0 17 6 3 6 0
15 -7 20 -10 6 -8 10 10 17 20 7 21 10 8 15 -10 4 -17 11 -17 17 0 6 5 8 11 4
7 -4 7 1 -1 16 -7 13 -8 20 -2 16 6 -3 14 -2 17 4 4 6 1 9 -6 8 -6 -2 -14 3
-17 11 -2 8 0 11 6 7 11 -7 10 19 -1 30 -4 4 1 13 11 21 9 8 12 12 5 9 -6 -4
-14 -2 -18 4 -3 5 0 10 7 10 10 0 10 2 -1 9 -11 7 -10 10 4 18 15 9 16 11 1
16 -9 4 -16 11 -16 17 0 6 5 8 12 4 7 -5 8 -3 3 7 -15 23 -13 51 4 57 9 3 19
10 23 16 5 7 8 6 8 -3 0 -11 3 -11 17 0 14 12 16 12 9 -1 -4 -8 0 -6 9 5 16
20 16 20 31 1 11 -16 14 -17 14 -4 0 9 9 18 21 21 15 4 19 2 15 -9 -5 -13 -3
-13 15 0 12 8 28 12 37 9 8 -4 13 -2 10 3 -4 5 9 9 28 8 19 -1 32 2 29 6 -3 4
2 11 11 14 10 4 13 2 8 -7 -6 -9 -4 -9 7 -1 8 6 22 10 32 9 15 -3 16 -1 5 12
-12 14 -11 15 9 5 28 -15 36 -15 27 0 -5 8 -2 9 9 5 10 -3 17 -2 17 4 0 6 5 7
10 4 6 -3 10 -2 10 3 0 6 10 8 22 4 14 -3 19 -1 14 6 -5 8 -1 10 10 5 13 -5
15 -3 9 8 -6 11 -5 11 5 2 14 -13 48 0 63 25 7 11 11 11 25 0 12 -10 14 -10 8
0 -4 7 -1 12 8 12 9 0 16 5 16 10 0 6 11 8 24 6 18 -3 23 -1 20 9 -4 9 2 13
20 11 15 -2 23 1 19 7 -4 7 0 8 11 4 14 -5 17 -3 12 8 -7 18 5 20 23 3 10 -11
11 -10 6 4 -5 12 0 17 17 20 13 2 22 9 20 16 -1 8 2 11 7 8 11 -7 71 22 71 35
0 6 5 7 12 3 8 -5 9 -2 4 11 -5 15 -4 16 9 5 11 -9 15 -9 15 -1 0 6 11 16 25
21 14 5 25 14 25 20 0 6 5 8 10 5 6 -3 10 1 10 9 0 9 7 16 15 16 8 0 15 4 15
10 0 5 6 9 13 7 6 -1 11 4 10 11 -2 6 6 12 18 12 13 0 18 4 13 12 -5 8 -2 9
12 4 10 -4 16 -4 12 -1 -9 9 22 44 55 61 15 8 27 21 27 29 0 8 3 14 8 13 4 -1
38 29 77 67 38 38 63 65 55 60 -8 -5 4 10 27 32 23 22 40 43 36 47 -3 3 -1 6
5 6 7 0 12 7 12 16 0 14 3 14 15 4 13 -11 14 -10 9 4 -3 9 -1 16 6 16 6 0 8 5
5 10 -3 6 1 10 10 10 9 0 14 4 11 9 -3 5 8 22 24 40 17 17 30 36 30 43 0 6 10
23 23 36 12 14 15 21 7 17 -13 -8 -13 -6 -1 8 7 9 17 15 21 12 5 -3 6 4 3 15
-4 14 0 20 10 20 11 0 13 6 9 22 -3 14 -1 19 6 14 8 -5 10 -1 5 10 -5 13 -3
16 9 11 13 -4 16 -1 12 19 -3 15 1 27 10 30 8 3 12 12 9 20 -3 8 0 14 7 14 6
0 8 4 5 10 -3 5 -1 10 5 10 6 0 8 5 5 10 -4 6 -1 17 5 25 6 8 9 19 5 25 -3 5
2 10 12 10 14 0 15 2 5 9 -11 7 -11 10 0 22 14 15 20 39 19 77 -1 12 4 22 10
22 5 0 8 4 4 9 -3 5 -1 13 5 16 8 5 8 11 0 20 -8 10 -8 15 1 21 8 5 9 3 4 -7
-8 -12 -6 -12 8 0 20 16 22 22 6 18 -6 -1 -13 6 -14 16 -2 9 0 15 5 12 4 -3
11 2 14 11 4 9 2 13 -5 8 -8 -4 -9 1 -4 16 4 12 8 28 9 35 1 7 8 20 16 30 7 9
9 15 4 14 -21 -4 -28 2 -14 11 13 8 13 10 1 10 -11 0 -10 4 5 16 10 8 13 13 7
9 -8 -4 -13 0 -13 9 0 8 6 17 13 19 9 4 8 6 -2 6 -11 1 -11 4 0 18 10 11 10
14 2 9 -14 -8 -18 6 -6 18 10 10 11 126 1 120 -12 -8 -10 10 3 23 8 8 8 13 0
17 -6 4 -11 12 -11 17 0 6 6 7 13 3 9 -6 9 -4 1 7 -17 21 -26 91 -11 82 9 -5
9 -3 1 8 -16 21 -24 58 -13 65 6 3 5 11 -2 20 -6 8 -9 23 -6 34 3 11 1 20 -5
20 -5 0 -8 8 -7 18 1 9 -2 25 -6 36 -4 10 -8 31 -9 46 -1 16 -3 26 -5 24 -2
-2 -13 20 -23 49 -10 28 -21 59 -25 67 -3 8 -7 17 -8 20 -23 75 -149 255 -247
353 -221 219 -555 379 -1050 502 -81 20 -153 38 -160 39 -82 14 -148 31 -148
38 0 5 -4 7 -9 4 -10 -7 -9 20 2 30 4 4 2 13 -4 21 -9 9 -8 13 0 13 6 0 11 5
11 11 0 5 -4 8 -8 5 -4 -2 -8 4 -8 14 0 10 4 17 7 14 4 -2 11 0 14 6 4 6 1 9
-6 8 -6 -2 -14 3 -17 11 -2 8 0 11 6 7 11 -7 10 19 -1 30 -4 4 1 13 11 21 9 7
13 13 7 12 -22 -3 -29 2 -15 11 10 6 11 10 3 10 -7 0 -13 5 -13 11 0 5 6 7 13
3 8 -5 8 -2 -2 9 -11 14 -11 17 0 17 9 0 10 3 4 8 -14 10 -17 32 -5 32 5 0 10
5 10 11 0 5 -4 8 -9 4 -6 -3 -9 3 -8 14 1 12 7 17 17 14 10 -3 9 0 -4 11 -20
16 -20 16 0 32 10 8 14 13 7 10 -6 -4 -14 -2 -18 4 -3 5 0 10 7 10 9 0 10 3 2
8 -12 7 -14 73 -2 66 4 -2 10 0 13 6 4 6 1 9 -6 8 -6 -2 -14 3 -17 11 -3 10 0
11 9 5 12 -6 12 -5 1 8 -10 13 -10 17 0 20 10 4 10 8 -1 21 -11 14 -11 17 0
17 9 0 10 3 4 8 -14 10 -17 32 -5 32 5 0 10 5 10 11 0 5 -4 8 -9 4 -6 -3 -9 3
-8 14 1 12 7 17 17 14 10 -3 9 0 -4 11 -20 16 -20 16 0 32 10 8 14 13 7 10 -6
-4 -14 -2 -18 4 -3 5 0 10 7 10 9 0 10 3 2 8 -12 7 -14 73 -2 66 4 -2 10 0 13
6 4 6 1 9 -6 8 -6 -2 -14 3 -17 11 -3 10 0 11 9 5 12 -7 12 -5 0 9 -9 11 -10
17 -2 17 6 0 11 5 11 11 0 5 -4 8 -8 5 -4 -2 -8 4 -8 14 0 10 4 17 7 14 4 -2
11 0 14 6 4 6 1 9 -6 8 -6 -2 -14 3 -17 11 -2 8 0 11 6 7 11 -7 10 19 -1 30
-4 4 1 13 11 21 9 8 12 12 5 9 -6 -4 -14 -2 -18 4 -3 5 0 10 7 10 8 0 9 3 3 8
-14 10 -16 62 -2 62 7 0 6 4 -3 10 -8 5 -10 10 -3 10 6 0 9 9 6 23 -4 22 -4
22 12 2 9 -11 21 -19 28 -17 17 5 57 -20 50 -31 -3 -6 -1 -7 6 -3 7 5 20 -1
32 -15 10 -12 19 -19 19 -16 0 3 11 -5 25 -19 14 -14 22 -30 19 -36 -4 -6 -3
-8 3 -5 39 24 156 -246 165 -379 2 -30 7 -36 30 -41 15 -3 25 -9 22 -14 -5 -8
11 -13 19 -6 2 1 12 -5 22 -13 11 -8 16 -10 12 -4 -4 7 3 14 18 16 13 3 22 2
20 -2 -3 -5 1 -10 9 -13 10 -4 13 1 10 16 -2 12 -2 16 2 10 3 -7 13 -13 23
-13 9 0 22 -5 28 -11 9 -9 11 -6 7 12 -2 13 -2 18 2 12 3 -7 13 -13 23 -13 9
0 22 -5 28 -11 9 -9 11 -6 7 12 -2 13 -2 18 2 12 3 -7 13 -13 23 -13 9 0 23 6
30 13 11 10 12 9 6 -2 -6 -11 -2 -13 18 -9 15 3 24 2 22 -2 -3 -5 1 -10 9 -13
10 -4 13 1 10 16 -2 12 -2 16 2 10 3 -7 13 -13 23 -13 9 0 23 6 30 13 11 10
12 9 6 -2 -6 -11 -2 -13 18 -9 15 3 24 2 22 -2 -3 -5 1 -10 9 -13 10 -4 13 1
10 16 -2 12 -2 16 2 10 3 -7 13 -13 23 -13 9 0 23 6 30 13 11 10 12 9 6 -2 -6
-11 -2 -13 18 -9 15 3 24 2 22 -2 -3 -5 1 -10 9 -13 10 -4 13 1 10 16 -2 12
-2 16 2 10 3 -7 13 -13 23 -13 9 0 23 6 30 13 11 10 12 9 6 -2 -6 -11 -2 -13
18 -9 15 3 24 2 22 -2 -3 -5 1 -10 9 -13 10 -4 12 1 9 16 -3 15 -2 18 4 10 6
-8 27 -12 55 -10 26 1 45 0 42 -4 -2 -4 3 -9 11 -12 8 -4 12 -1 9 6 -3 9 9 12
43 10 29 -2 50 2 56 10 6 8 7 7 4 -5 -3 -9 0 -19 8 -22 10 -3 12 0 8 11 -5 13
-3 14 15 4 18 -10 21 -9 16 4 -4 9 1 18 12 22 21 7 44 34 39 44 -2 3 2 6 10 6
8 0 11 -5 8 -10 -3 -6 -1 -7 5 -3 7 4 12 14 12 22 0 8 5 14 10 14 6 0 10 7 10
16 0 8 5 12 10 9 6 -3 10 -1 10 5 0 6 5 8 13 4 7 -5 6 0 -3 11 -14 17 -14 18
10 5 23 -12 24 -12 11 4 -12 14 -12 16 3 10 13 -5 17 -2 14 12 -2 11 2 18 10
16 6 -1 12 3 12 9 0 7 8 18 18 26 15 13 15 14 0 9 -12 -3 -15 -1 -11 9 3 8 10
12 17 8 8 -5 8 -3 0 8 -10 14 -15 43 -18 106 0 18 -3 33 -6 33 -5 0 -11 37
-13 83 -1 9 -5 17 -9 17 -4 0 -8 9 -8 21 0 32 -59 206 -100 296 -135 292 -397
544 -700 672 -30 13 -68 29 -85 36 -82 35 -254 85 -345 100 -19 3 -42 8 -50
10 -35 10 -219 36 -262 38 -20 0 -25 4 -17 13 7 8 6 14 -3 17 -9 3 -7 9 7 21
11 9 16 16 10 15 -22 -3 -29 2 -15 11 10 6 11 10 3 10 -7 0 -13 5 -13 11 0 5
6 7 13 3 8 -5 8 -2 -2 9 -11 14 -11 17 0 17 9 0 10 3 4 8 -14 10 -17 32 -5 32
5 0 10 5 10 11 0 5 -4 8 -9 4 -6 -3 -9 3 -8 14 1 12 7 17 17 14 10 -3 9 0 -4
11 -20 16 -20 16 0 32 10 8 14 13 7 10 -6 -4 -14 -2 -18 4 -3 5 0 10 7 10 9 0
10 3 2 8 -12 7 -14 73 -2 66 4 -2 10 0 13 6 4 6 1 9 -6 8 -6 -2 -14 3 -17 11
-3 10 0 11 9 5 12 -7 12 -5 0 9 -8 11 -9 17 -2 17 7 0 8 8 1 26 -13 34 -13 47
3 38 8 -6 8 -3 -2 9 -7 9 -11 23 -8 30 3 7 0 22 -7 33 -10 18 -22 19 -251 16z
m-475 -1582 c0 8 3 10 7 6 8 -8 11 -994 2 -1007 -7 -12 -71 14 -135 57 -57 38
-129 105 -160 149 -33 47 -75 140 -77 172 -1 15 -6 32 -12 36 -6 6 -6 10 3 14
6 2 12 9 12 14 0 6 -5 7 -11 3 -8 -5 -10 1 -7 20 3 14 2 26 -1 26 -13 0 -5 66
9 78 8 8 10 11 4 8 -16 -8 -22 13 -13 49 4 17 7 24 8 16 0 -8 4 -11 7 -8 4 4
1 13 -6 22 -10 12 -10 15 0 15 10 0 10 3 1 14 -9 11 -8 17 4 29 18 19 20 31 3
21 -7 -4 -5 2 5 13 14 16 15 22 5 26 -9 4 -7 6 4 6 12 1 15 6 11 18 -4 11 -3
14 5 9 8 -5 10 -2 6 8 -3 9 -1 16 5 16 6 0 10 3 10 8 -3 19 2 33 10 27 5 -3
12 4 16 15 4 11 10 18 15 15 4 -3 11 2 14 11 3 8 10 12 16 9 5 -3 10 -2 10 2
0 5 9 14 21 21 12 8 18 9 14 3 -3 -6 -2 -11 3 -11 6 0 12 7 16 15 3 8 12 12
20 9 8 -3 17 0 21 6 5 8 10 8 20 0 10 -8 13 -7 11 6 0 9 7 18 17 19 9 2 15 0
13 -4 -3 -4 4 -7 14 -7 14 0 16 4 9 12 -8 9 -5 11 12 7 17 -5 20 -3 14 8 -8
12 -6 12 8 0 13 -11 17 -11 17 -1z m-440 -2070 c0 -5 -2 -10 -4 -10 -3 0 -8 5
-11 10 -3 6 -1 10 4 10 6 0 11 -4 11 -10z m1202 -315 c5 -6 8 -4 8 4 0 9 6 7
19 -7 19 -22 37 -30 26 -12 -9 15 4 12 22 -5 8 -8 19 -13 24 -10 5 4 9 1 9 -4
0 -6 3 -10 8 -9 12 3 92 -42 92 -52 0 -6 6 -9 13 -7 6 1 11 -4 9 -11 -1 -8 2
-11 7 -7 13 8 52 -26 44 -38 -3 -6 -1 -7 5 -3 10 6 48 -37 86 -97 52 -84 76
-215 70 -382 -5 -138 -30 -245 -80 -351 -29 -60 -166 -116 -364 -149 -24 -4
-32 5 -19 21 6 8 7 14 2 14 -5 0 -9 22 -9 49 0 28 5 47 10 44 5 -4 6 0 1 8
-11 17 -15 100 -4 94 9 -6 6 22 -4 31 -4 4 1 13 11 21 9 7 13 13 7 12 -22 -3
-29 2 -15 11 10 6 11 10 3 10 -7 0 -13 5 -13 11 0 5 6 7 13 3 8 -5 8 -2 -2 9
-11 14 -11 17 0 17 9 0 10 3 4 8 -14 10 -17 32 -5 32 5 0 10 5 10 11 0 5 -4 8
-9 4 -6 -3 -9 3 -8 14 1 12 7 17 17 14 10 -3 9 0 -4 11 -20 16 -20 16 0 32 10
8 14 13 7 10 -6 -4 -14 -2 -18 4 -3 5 0 10 7 10 8 0 9 3 3 8 -14 10 -15 103
-1 94 6 -3 5 2 -3 11 -9 11 -10 17 -2 17 6 0 11 5 11 11 0 5 -3 8 -7 6 -5 -3
-9 10 -9 29 -1 18 2 31 6 29 10 -6 7 21 -3 31 -4 4 1 13 11 21 9 7 13 13 7 12
-22 -3 -29 2 -15 11 10 6 11 10 3 10 -7 0 -13 5 -13 11 0 5 6 7 13 3 8 -5 8
-2 -2 9 -11 14 -11 17 0 17 9 0 10 3 4 8 -14 10 -17 32 -5 32 6 0 10 5 10 11
0 5 -4 8 -9 4 -6 -3 -9 3 -8 14 1 12 7 17 17 14 10 -3 9 0 -4 11 -20 16 -20
16 0 32 10 8 14 13 7 10 -6 -4 -14 -2 -18 4 -3 5 0 10 7 10 8 0 9 3 3 8 -14
10 -15 103 -1 94 6 -3 5 2 -3 11 -9 11 -10 17 -2 17 6 0 11 5 11 11 0 5 -4 8
-8 5 -5 -3 -9 1 -9 9 0 15 18 16 29 0z m1441 -1250 c-3 -9 -8 -14 -10 -11 -3
3 -2 9 2 15 9 16 15 13 8 -4z"/>
<path d="M2845 4980 c-3 -6 1 -7 9 -4 18 7 21 14 7 14 -6 0 -13 -4 -16 -10z"/>
<path d="M3195 730 c-3 -5 -1 -10 4 -10 6 0 11 5 11 10 0 6 -2 10 -4 10 -3 0
-8 -4 -11 -10z"/>
<path d="M3710 199 c0 -5 5 -7 10 -4 6 3 10 8 10 11 0 2 -4 4 -10 4 -5 0 -10
-5 -10 -11z"/>
</g>
</svg>
